<svg width="40" height="40" viewBox="0 0 256 256" fill="none" xmlns="http://www.w3.org/2000/svg">
<rect width="256" height="256" rx="40" fill="transparent"/>
<path fill-rule="evenodd" clip-rule="evenodd" d="M146.262 57.9405C147.21 57.9407 148.132 58.2497 148.889 58.8208C149.646 59.3918 150.196 60.1939 150.457 61.1056L155.187 77.6641C156.205 81.2302 158.116 84.4778 160.738 87.1002C163.361 89.7226 166.608 91.6333 170.174 92.6518L186.733 97.3819C187.644 97.6429 188.445 98.1935 189.016 98.9503C189.586 99.7071 189.895 100.629 189.895 101.577C189.895 102.525 189.586 103.447 189.016 104.203C188.445 104.96 187.644 105.511 186.733 105.772L170.174 110.502C166.608 111.52 163.361 113.431 160.738 116.053C158.116 118.676 156.205 121.924 155.187 125.49L150.457 142.048C150.196 142.959 149.645 143.761 148.888 144.331C148.131 144.902 147.209 145.21 146.262 145.21C145.314 145.21 144.392 144.902 143.635 144.331C142.878 143.761 142.328 142.959 142.067 142.048L137.337 125.49C136.318 121.924 134.407 118.676 131.785 116.053C129.163 113.431 125.915 111.52 122.349 110.502L105.79 105.772C104.879 105.511 104.078 104.96 103.508 104.203C102.937 103.447 102.628 102.525 102.628 101.577C102.628 100.629 102.937 99.7071 103.508 98.9503C104.078 98.1935 104.879 97.6429 105.79 97.3819L122.349 92.6518C125.915 91.6333 129.163 89.7226 131.785 87.1002C134.407 84.4778 136.318 81.2302 137.337 77.6641L142.067 61.1056C142.327 60.1939 142.878 59.3918 143.634 58.8208C144.391 58.2497 145.314 57.9407 146.262 57.9405ZM198.625 40.4859C199.599 40.4854 200.545 40.8104 201.312 41.4092C202.08 42.008 202.625 42.8463 202.861 43.7907L204.362 49.8183C205.735 55.2874 210.006 59.5579 215.475 60.931L221.502 62.4321C222.449 62.6665 223.289 63.2109 223.89 63.9786C224.491 64.7463 224.817 65.693 224.817 66.6678C224.817 67.6425 224.491 68.5893 223.89 69.3569C223.289 70.1246 222.449 70.669 221.502 70.9034L215.475 72.4045C210.006 73.7776 205.735 78.0481 204.362 83.5172L202.861 89.5449C202.627 90.491 202.082 91.3315 201.315 91.9322C200.547 92.533 199.6 92.8593 198.625 92.8593C197.651 92.8593 196.704 92.533 195.936 91.9322C195.168 91.3315 194.624 90.491 194.39 89.5449L192.889 83.5172C192.217 80.8317 190.829 78.3792 188.871 76.4218C186.914 74.4644 184.461 73.0758 181.776 72.4045L175.748 70.9034C174.802 70.669 173.962 70.1246 173.361 69.3569C172.76 68.5893 172.434 67.6425 172.434 66.6678C172.434 65.693 172.76 64.7463 173.361 63.9786C173.962 63.2109 174.802 62.6665 175.748 62.4321L181.776 60.931C184.461 60.2597 186.914 58.8711 188.871 56.9137C190.829 54.9564 192.217 52.5038 192.889 49.8183L194.39 43.7907C194.626 42.8463 195.171 42.008 195.939 41.4092C196.706 40.8104 197.652 40.4854 198.625 40.4859ZM189.898 119.031C190.815 119.031 191.708 119.319 192.451 119.855C193.195 120.39 193.751 121.147 194.041 122.016L196.333 128.899C197.206 131.5 199.242 133.548 201.849 134.415L208.732 136.713C209.598 137.004 210.352 137.56 210.885 138.302C211.419 139.044 211.706 139.935 211.706 140.85C211.706 141.764 211.419 142.655 210.885 143.397C210.352 144.139 209.598 144.695 208.732 144.986L201.849 147.284C199.248 148.157 197.2 150.194 196.333 152.8L194.035 159.683C193.744 160.55 193.188 161.303 192.446 161.837C191.703 162.371 190.812 162.658 189.898 162.658C188.984 162.658 188.093 162.371 187.35 161.837C186.608 161.303 186.052 160.55 185.761 159.683L183.463 152.8C183.035 151.516 182.313 150.349 181.356 149.392C180.399 148.435 179.232 147.713 177.948 147.284L171.065 144.986C170.198 144.695 169.444 144.139 168.911 143.397C168.377 142.655 168.09 141.764 168.09 140.85C168.09 139.935 168.377 139.044 168.911 138.302C169.444 137.56 170.198 137.004 171.065 136.713L177.948 134.415C180.548 133.542 182.596 131.506 183.463 128.899L185.761 122.016C186.051 121.148 186.606 120.392 187.348 119.856C188.091 119.321 188.983 119.032 189.898 119.031Z" fill="url(#paint0_linear_4100_9475)"/>
<path fill-rule="evenodd" clip-rule="evenodd" d="M48.7016 32.3056C51.3981 25.9067 56.5262 20.8411 62.9576 18.2231C69.389 15.6051 76.597 15.6493 82.9959 18.3458L94.03 22.9956C100.946 25.9102 104.992 33.1648 103.847 40.5804L97.7435 79.8967C97.2504 83.0793 95.8291 86.0457 93.6576 88.4241C91.4862 90.8026 88.6612 92.4874 85.5365 93.2675L71.8503 96.6865C70.4223 97.0413 69.6875 98.1333 69.644 99.0904C68.9813 113.347 71.4249 127.577 76.8057 140.796C82.1865 154.015 90.376 165.906 100.807 175.647C101.507 176.301 102.787 176.566 104.065 175.826L116.248 168.715C119.029 167.091 122.228 166.324 125.443 166.51C128.658 166.695 131.747 167.826 134.323 169.759L166.149 193.636C172.148 198.143 174.319 206.161 171.401 213.085L166.755 224.111C164.059 230.51 158.931 235.576 152.499 238.194C146.068 240.812 138.86 240.768 132.461 238.071L114.365 230.446C44.4131 200.968 11.5981 120.353 41.0762 50.4009L48.7016 32.3056Z" fill="url(#paint1_linear_4100_9475)"/>
<defs>
<linearGradient id="paint0_linear_4100_9475" x1="226.552" y1="34.0859" x2="129.271" y2="226.051" gradientUnits="userSpaceOnUse">
<stop stop-color="#5C6975"/>
<stop offset="1"/>
</linearGradient>
<linearGradient id="paint1_linear_4100_9475" x1="226.552" y1="34.0859" x2="129.271" y2="226.051" gradientUnits="userSpaceOnUse">
<stop stop-color="#5C6975"/>
<stop offset="1"/>
</linearGradient>
</defs>
</svg>
