<svg width="342" height="52" viewBox="0 0 342 52" fill="none" xmlns="http://www.w3.org/2000/svg">
<path d="M26.6604 25.8472C26.6604 25.9314 26.5935 26.0002 26.5117 26.0002H0.148692C0.0669112 26.0002 0 25.9314 0 25.8472V0.153275C0 0.0691082 0.0669112 0.000244141 0.148692 0.000244141H26.5117C26.5935 0.000244141 26.6604 0.0691082 26.6604 0.153275V25.8472Z" fill="#F0A921"/>
<path d="M55.6924 25.8472C55.6924 25.9314 55.6255 26.0002 55.5437 26.0002H29.1807C29.0989 26.0002 29.032 25.9314 29.032 25.8472V0.153275C29.032 0.0691082 29.0989 0.000244141 29.1807 0.000244141H55.5437C55.6255 0.000244141 55.6924 0.0691082 55.6924 0.153275V25.8472Z" fill="#F6BC2E"/>
<path d="M84.7244 25.8472C84.7244 25.9314 84.6575 26.0002 84.5757 26.0002H58.2127C58.1309 26.0002 58.064 25.9314 58.064 25.8472V0.153275C58.064 0.0691082 58.1309 0.000244141 58.2127 0.000244141H84.5757C84.6575 0.000244141 84.7244 0.0691082 84.7244 0.153275V25.8472Z" fill="#AC4BC5"/>
<path d="M39.8791 8.33272V11.072H47.3658V14.6376H39.8791V17.9737H48.5776V21.5393H36.147V4.76709H48.5776V8.33272H39.8791Z" fill="#470767"/>
<path d="M20.1105 21.5393H15.5828L13.2186 17.9737L12.4008 16.7341V12.6865C12.609 12.6712 13.4788 12.6252 14.1033 12.4875C14.3338 12.4416 14.5345 12.3804 14.6535 12.3039C15.159 12.0667 15.5531 11.6229 15.7389 11.072C15.8059 10.8654 15.843 10.6435 15.843 10.4063C15.843 9.25856 14.936 8.32506 13.8208 8.32506H10.282V21.5317H6.5498V4.76709H14.8319C15.1814 4.8283 15.5159 4.92777 15.843 5.05785C17.3002 5.63937 18.4526 6.83301 19.0176 8.32506C19.2629 8.9678 19.3968 9.67174 19.3968 10.4063C19.3968 10.6282 19.3819 10.8501 19.3596 11.072C19.2035 12.4799 18.5492 13.7271 17.5902 14.63C17.1738 15.0278 16.698 15.3569 16.1776 15.6017L17.7463 17.966L19.5752 20.7206L20.1105 21.5393Z" fill="#470767"/>
<path d="M75.8178 17.9737L78.182 21.5393H73.6617L71.2901 17.9737L69.4538 15.2038L67.9297 16.9407V21.5393H64.1975V4.76709H67.9297V11.2021L68.0412 11.072L69.8552 8.9984L70.4426 8.33272L73.5651 4.76709H78.5909L75.4683 8.33272L73.067 11.072L72.0261 12.2656L73.6023 14.6376L75.8178 17.9737Z" fill="#470767"/>
<path d="M113.385 25.8435C113.385 25.9276 113.318 25.9965 113.236 25.9965H86.8731C86.7913 25.9965 86.7244 25.9276 86.7244 25.8435V0.157182C86.7244 0.0730144 86.7913 0.00415039 86.8731 0.00415039H113.236C113.318 0.00415039 113.385 0.0730144 113.385 0.157182V25.8435Z" fill="#E35ABE"/>
<path d="M106.634 14.6492C106.329 13.8917 105.846 13.2107 105.214 12.6904C105.645 12.2313 105.987 11.6804 106.21 11.0759C106.396 10.5632 106.493 10.02 106.493 9.4461C106.493 9.06352 106.448 8.6886 106.359 8.33663C106.002 6.83692 104.946 5.50555 103.564 4.93933C103.274 4.81691 102.961 4.771 102.649 4.771H93.0957V21.5432H102.233C102.523 21.5432 102.798 21.5126 103.073 21.4667C105.021 21.1147 106.575 19.5002 106.939 17.5032C107.11 16.5391 106.998 15.5444 106.634 14.6492ZM96.8279 17.9776V8.33663H101.735C102.471 8.33663 103.065 8.94875 103.065 9.70625C103.065 10.4638 102.471 11.0759 101.735 11.0759H99.9504V14.6339C100.515 14.6339 101.08 14.6339 101.645 14.6339C102.002 14.6339 102.002 14.6339 102.359 14.6339C103.028 14.6339 103.854 15.1312 103.854 16.4549C103.854 16.7227 103.66 17.9699 102.56 17.9699C100.53 17.9776 98.8649 17.9776 96.8279 17.9776Z" fill="#470767"/>
<path d="M142.045 25.8435C142.045 25.9276 141.978 25.9965 141.896 25.9965H115.533C115.452 25.9965 115.385 25.9276 115.385 25.8435V0.157182C115.385 0.0730144 115.452 0.00415039 115.533 0.00415039H141.896C141.978 0.00415039 142.045 0.0730144 142.045 0.157182V25.8435Z" fill="#E9B623"/>
<path d="M134.967 8.32905C134.484 6.6151 133.124 5.29139 131.429 4.89351C131.079 4.80934 130.715 4.76343 130.343 4.76343H128.715H127.087C126.715 4.76343 126.351 4.80169 126.009 4.89351C124.306 5.29139 122.953 6.62275 122.47 8.32905C122.344 8.77284 122.277 9.23959 122.277 9.72164V16.5774C122.277 17.0595 122.344 17.5339 122.47 17.97C122.953 19.684 124.314 21.0077 126.009 21.4056C126.358 21.4897 126.715 21.5356 127.087 21.5356H128.715H130.343C130.715 21.5356 131.079 21.4974 131.429 21.4056C133.131 21.0077 134.484 19.684 134.967 17.97C135.094 17.5262 135.161 17.0595 135.161 16.5774V9.72164C135.161 9.23959 135.094 8.77284 134.967 8.32905ZM131.652 15.1849C131.652 16.6999 130.254 17.9318 128.782 17.97H128.715C127.221 17.97 125.875 16.7228 125.875 15.1849V11.076C125.89 9.64512 127.154 8.47443 128.507 8.32905C128.596 8.3214 128.693 8.31375 128.782 8.31375C128.879 8.31375 128.968 8.3214 129.057 8.32905C130.224 8.45148 131.399 9.33906 131.652 10.5021C131.689 10.6934 131.652 15.1849 131.652 15.1849Z" fill="#470767"/>
<path d="M170.706 25.8435C170.706 25.9276 170.639 25.9965 170.557 25.9965H144.194C144.112 25.9965 144.045 25.9276 144.045 25.8435V0.157182C144.045 0.0730144 144.112 0.00415039 144.194 0.00415039H170.557C170.639 0.00415039 170.706 0.0730144 170.706 0.157182V25.8435Z" fill="#E05BBE"/>
<path d="M163.933 4.771V8.32897H159.241V21.5356H155.509V8.32897H150.818V4.771H163.933Z" fill="#470767"/>
</svg>
